<svg id="visual" viewBox="0 0 1920 3000" width="1920" height="3000" xmlns="http://www.w3.org/2000/svg" xmlns:xlink="http://www.w3.org/1999/xlink" version="1.1"><rect width="1920" height="3000" fill="#001829"></rect><g><g transform="translate(28 800)"><path d="M0 -78.9L78.9 0L0 78.9L-78.9 0Z" fill="#de5b4b"></path></g><g transform="translate(1019 1140)"><path d="M0 -74L74 0L0 74L-74 0Z" fill="#de5b4b"></path></g><g transform="translate(233 877)"><path d="M0 -67L67 0L0 67L-67 0Z" fill="#de5b4b"></path></g><g transform="translate(1381 98)"><path d="M0 -74L74 0L0 74L-74 0Z" fill="#de5b4b"></path></g><g transform="translate(1744 1820)"><path d="M0 -74L74 0L0 74L-74 0Z" fill="#de5b4b"></path></g><g transform="translate(916 1980)"><path d="M0 -61L61 0L0 61L-61 0Z" fill="#de5b4b"></path></g><g transform="translate(652 1608)"><path d="M0 -26L26 0L0 26L-26 0Z" fill="#de5b4b"></path></g><g transform="translate(721 2582)"><path d="M0 -27L27 0L0 27L-27 0Z" fill="#de5b4b"></path></g><g transform="translate(436 2286)"><path d="M0 -70L70 0L0 70L-70 0Z" fill="#de5b4b"></path></g><g transform="translate(1328 1432)"><path d="M0 -73L73 0L0 73L-73 0Z" fill="#de5b4b"></path></g><g transform="translate(1073 2483)"><path d="M0 -9L9 0L0 9L-9 0Z" fill="#de5b4b"></path></g><g transform="translate(1129 2313)"><path d="M0 -52L52 0L0 52L-52 0Z" fill="#de5b4b"></path></g><g transform="translate(1349 1898)"><path d="M0 -22L22 0L0 22L-22 0Z" fill="#de5b4b"></path></g></g></svg>